<svg xmlns="http://www.w3.org/2000/svg" width="1600" height="760" viewBox="0 0 1600 760" role="img" aria-label="X1 public systems">
<defs>
  <linearGradient id="bg" x1="0" x2="1"><stop stop-color="#03070A"/><stop offset="1" stop-color="#07131A"/></linearGradient>
  <linearGradient id="accent" x1="0" x2="1"><stop stop-color="#18F2FF"/><stop offset="1" stop-color="#3E7BFF"/></linearGradient>
  <filter id="soft"><feGaussianBlur stdDeviation="18"/></filter>
</defs>
<rect width="1600" height="760" rx="30" fill="url(#bg)"/>
<circle cx="1450" cy="80" r="170" fill="#0D2C3A" opacity=".42" filter="url(#soft)"/>
<path d="M0 84h520l40-40h360l40 40h640M0 690h420l34 34h690l34-34h422" fill="none" stroke="#18313B" stroke-width="2"/>
<text x="70" y="82" fill="#7F9AA5" font-size="18" font-family="Arial,Helvetica,sans-serif" letter-spacing="7">X1 // PUBLIC SYSTEMS</text>
<text x="70" y="140" fill="#F6FBFF" font-size="44" font-weight="800" font-family="Arial,Helvetica,sans-serif">REAL PROJECTS. CLEAR STATUS.</text>
<text x="70" y="180" fill="#8FA9B3" font-size="22" font-family="Arial,Helvetica,sans-serif">Released means usable. RC means release candidate. No fake module theatre.</text>
<g font-family="Arial,Helvetica,sans-serif">
  <g transform="translate(70 235)"><text x="0" y="0" fill="#18F2FF" font-size="18" font-weight="700">01</text><text x="56" y="0" fill="#F6FBFF" font-size="26" font-weight="800">STREAM MANAGER</text><text x="450" y="0" fill="#8FA9B3" font-size="16" letter-spacing="3">STREAM OPERATIONS</text><rect x="1180" y="-25" width="220" height="38" rx="19" fill="#082129" stroke="#18F2FF"/><text x="1232" y="0" fill="#18F2FF" font-size="15" font-weight="700" letter-spacing="2">RELEASED</text><line x1="0" y1="30" x2="1400" y2="30" stroke="#17313A"/></g>
  <g transform="translate(70 305)"><text x="0" y="0" fill="#18F2FF" font-size="18" font-weight="700">02</text><text x="56" y="0" fill="#F6FBFF" font-size="26" font-weight="800">XCIPTV CONTROL</text><text x="450" y="0" fill="#8FA9B3" font-size="16" letter-spacing="3">APP CONTROL</text><rect x="1180" y="-25" width="220" height="38" rx="19" fill="#082129" stroke="#18F2FF"/><text x="1232" y="0" fill="#18F2FF" font-size="15" font-weight="700" letter-spacing="2">RELEASED</text><line x1="0" y1="30" x2="1400" y2="30" stroke="#17313A"/></g>
  <g transform="translate(70 375)"><text x="0" y="0" fill="#18F2FF" font-size="18" font-weight="700">03</text><text x="56" y="0" fill="#F6FBFF" font-size="26" font-weight="800">TIVIMATE</text><text x="450" y="0" fill="#8FA9B3" font-size="16" letter-spacing="3">DEVICE / APP CONTROL</text><rect x="1180" y="-25" width="220" height="38" rx="19" fill="#082129" stroke="#18F2FF"/><text x="1232" y="0" fill="#18F2FF" font-size="15" font-weight="700" letter-spacing="2">RELEASED</text><line x1="0" y1="30" x2="1400" y2="30" stroke="#17313A"/></g>
  <g transform="translate(70 445)"><text x="0" y="0" fill="#18F2FF" font-size="18" font-weight="700">04</text><text x="56" y="0" fill="#F6FBFF" font-size="26" font-weight="800">SMARTERS V5</text><text x="450" y="0" fill="#8FA9B3" font-size="16" letter-spacing="3">ANDROID / TV TOOLING</text><rect x="1180" y="-25" width="220" height="38" rx="19" fill="#082129" stroke="#18F2FF"/><text x="1232" y="0" fill="#18F2FF" font-size="15" font-weight="700" letter-spacing="2">RELEASED</text><line x1="0" y1="30" x2="1400" y2="30" stroke="#17313A"/></g>
  <g transform="translate(70 515)"><text x="0" y="0" fill="#18F2FF" font-size="18" font-weight="700">05</text><text x="56" y="0" fill="#F6FBFF" font-size="26" font-weight="800">EPG</text><text x="450" y="0" fill="#8FA9B3" font-size="16" letter-spacing="3">GUIDE DATA / VALIDATION</text><rect x="1180" y="-25" width="220" height="38" rx="19" fill="#082129" stroke="#18F2FF"/><text x="1252" y="0" fill="#18F2FF" font-size="15" font-weight="700" letter-spacing="2">ACTIVE</text><line x1="0" y1="30" x2="1400" y2="30" stroke="#17313A"/></g>
  <g transform="translate(70 585)"><text x="0" y="0" fill="#18F2FF" font-size="18" font-weight="700">06</text><text x="56" y="0" fill="#F6FBFF" font-size="26" font-weight="800">PICONS</text><text x="450" y="0" fill="#8FA9B3" font-size="16" letter-spacing="3">MEDIA DATA</text><rect x="1180" y="-25" width="220" height="38" rx="19" fill="#082129" stroke="#18F2FF"/><text x="1252" y="0" fill="#18F2FF" font-size="15" font-weight="700" letter-spacing="2">ACTIVE</text><line x1="0" y1="30" x2="1400" y2="30" stroke="#17313A"/></g>
  <g transform="translate(70 655)"><text x="0" y="0" fill="#18F2FF" font-size="18" font-weight="700">07</text><text x="56" y="0" fill="#F6FBFF" font-size="26" font-weight="800">WAVEO</text><text x="450" y="0" fill="#8FA9B3" font-size="16" letter-spacing="3">CONTROL PLANE</text><rect x="1140" y="-25" width="260" height="38" rx="19" fill="#082129" stroke="#7C5CFF"/><text x="1194" y="0" fill="#C5B8FF" font-size="15" font-weight="700" letter-spacing="2">PUBLIC RC</text></g>
</g>
<rect x="70" y="704" width="1460" height="2" fill="url(#accent)" opacity=".55"/>
<text x="70" y="735" fill="#677A83" font-size="15" font-family="Arial,Helvetica,sans-serif" letter-spacing="3">X1 PUBLIC SURFACE // STATUS WITHOUT HYPE</text>
</svg>